PathFileType	4	(X/Y/Z)	C:\Users\WrightLab\Desktop\Jo\P1_boxCal14.trc
DataRate	CameraRate	NumFrames	NumMarkers	Units	OrigDataRate	OrigDataStartFrame	OrigNumFrames
100.00	100.00	       28	19	mm	100.00	305	       811
Frame#	Time	Headset_Front			Headset_Back			Headset_Left			Headset_Right			Left_Shoulder			Right_Shoulder			Sternum			C7			Left Elbow			Right Elbow			Left Wrist			Right Wrist			Left ASIS			Right ASIS			S2			Left Knee			Right Knee			Left Ankle			Right Ankle			
		X1	Y1	Z1	X2	Y2	Z2	X3	Y3	Z3	X4	Y4	Z4	X5	Y5	Z5	X6	Y6	Z6	X7	Y7	Z7	X8	Y8	Z8	X9	Y9	Z9	X10	Y10	Z10	X11	Y11	Z11	X12	Y12	Z12	X13	Y13	Z13	X14	Y14	Z14	X15	Y15	Z15	X16	Y16	Z16	X17	Y17	Z17	X18	Y18	Z18	X19	Y19	Z19	

305	3.040	-969.93896	470.27368	787.84436	-1169.66138	1528.32483	867.80591							-1008.15179	886.21216	724.50854							-1199.55420	887.69977	667.91266				-790.91547	822.84271	881.49463	-988.55402	95.72109	792.21210	-928.74963	1006.70190	1008.20337	-1209.52710	900.92395	1001.17590				-1205.24939	1283.66565	936.16882	-976.40759	1264.06519	891.57483				-1333.93884	1279.82886	766.45074	-1208.34534	1450.01709	718.96136	
306	3.050	-964.28448	469.82141	784.55634	-1165.47913	1529.00525	860.71149							-1003.78229	886.75250	720.70294							-1195.23462	889.10693	661.46716				-787.74542	824.57526	871.94214	-988.44562	95.59253	792.28674	-922.55969	1007.17249	1000.11023	-1203.30713	899.27203	993.47186				-1201.19299	1284.62341	929.62085	-972.02563	1264.90894	884.10809				-1330.29028	1280.54395	760.26428	-1204.71289	1451.14441	711.90302	
307	3.060	-960.15161	469.11682	782.79309	-1161.88379	1530.00256	853.74048							-998.44623	888.55212	711.69507							-1191.33569	889.33197	654.75409				-784.00958	824.80310	862.64124	-987.11090	95.14560	792.08801	-917.88910	1008.33063	990.56738	-1199.18481	899.34534	987.42969				-1196.71667	1285.27673	922.97107	-968.04688	1265.44983	876.17261				-1327.06299	1280.91553	754.36414	-1200.80298	1451.97302	704.32990	
308	3.070	-955.34326	467.24307	780.03467	-1157.97815	1530.65723	846.57336							-994.18628	888.81775	705.07104							-1187.80823	890.35718	648.31897				-779.83899	824.80139	851.60199	-987.09845	95.01851	792.08130	-914.74786	1008.32416	980.90393	-1194.64380	898.95471	981.32166				-1192.98108	1286.33582	916.48590	-964.00079	1266.62537	872.98126				-1324.06128	1281.48828	748.44171	-1197.06812	1452.86072	697.51477	
309	3.080	-950.78943	466.09732	779.00726	-1154.44702	1531.60327	839.36224							-991.03210	888.99988	697.76166							-1184.42688	890.76001	641.16998				-776.14832	826.06598	842.88965	-987.06189	94.75019	792.31342	-908.29492	1009.38074	974.09698	-1189.94836	898.44531	973.81458				-1188.79785	1286.81946	909.88763	-960.37610	1266.99133	865.29834				-1320.91174	1281.57690	742.61084	-1193.81091	1453.61035	690.45215	
310	3.090	-947.54773	464.27505	777.21936	-1150.90283	1532.33862	832.08368							-987.25226	888.88171	691.56488							-1181.49414	890.94537	635.81262				-772.95288	826.49133	832.91003	-986.95319	94.44097	792.68311	-904.89423	1009.98547	965.36176	-1185.97729	898.80072	967.51086				-1185.17517	1287.84827	903.41187	-956.92657	1267.93066	852.95947				-1318.17590	1281.85498	736.68835	-1189.96680	1454.19739	683.15601	
311	3.100	-944.99695	463.68478	777.47198	-1147.15869	1533.20032	824.63910							-984.30927	889.49829	685.19177							-1178.76111	890.01129	629.22681				-769.24078	826.55542	821.88129	-986.94189	94.32266	792.79932	-896.98096	1011.30042	956.58612	-1183.82080	900.85681	961.80359				-1181.83020	1288.59741	896.91711	-953.35907	1268.75500	845.39648				-1315.35278	1282.08923	730.65491	-1186.85120	1454.87341	676.08777	
312	3.110	-943.93860	462.68069	777.80469	-1143.34070	1533.90222	817.08588							-980.84076	889.16449	677.66956							-1175.95142	890.69257	623.38208				-765.72144	826.41766	813.04761	-987.00983	94.44930	793.99615	-892.52460	1011.53265	948.06592	-1178.60498	899.53113	955.26312				-1178.01697	1289.34314	890.30688	-949.41528	1270.48401	838.89063				-1312.32373	1282.09167	724.66809	-1183.72351	1455.41785	668.91388	
313	3.120	-943.37177	462.33209	777.08325	-1140.34729	1535.24280	809.76605							-978.37048	888.89111	673.36475							-1172.83655	890.19611	616.45428				-762.91498	828.37817	804.04285	-987.07068	94.57230	795.35516	-889.78406	1012.36298	939.41260				-1005.50995	1376.99512	579.21088	-1174.53625	1289.98193	883.64850	-946.51550	1270.85498	832.92993				-1309.55273	1282.52539	718.49365	-1180.54419	1455.85925	661.76483	
314	3.130	-942.21710	460.93130	776.13007	-1136.59363	1535.94751	802.10370							-975.97101	888.87097	667.03375							-1169.65564	890.91815	608.85419				-759.70496	828.29102	793.21881	-987.06427	94.38268	795.70483	-883.97418	1012.41309	929.16595				-1002.60425	1377.02502	571.40607	-1171.66260	1291.16528	877.14191	-943.21466	1271.65674	826.32990				-1306.77783	1282.76123	712.33630	-1177.32373	1456.15442	654.55579	
315	3.140	-940.49292	460.00504	774.78278	-1133.08459	1536.78345	794.48846							-973.63733	889.62579	660.22656				-1067.80310	1177.14685	641.11316	-1166.91528	890.54242	603.08362				-757.39166	829.49420	784.12122	-987.17169	94.14823	796.19861	-880.25745	1013.50854	922.73688				-1000.05566	1376.95898	564.85980	-1167.64807	1291.54395	870.18433	-939.80414	1273.16125	818.29279				-1303.89258	1283.12439	705.89337	-1174.64258	1456.66418	647.40936	
316	3.150	-939.26660	459.48203	773.19507	-1130.25122	1537.67346	787.03870							-971.46887	889.81586	654.75311							-1164.24109	891.38055	597.47223				-754.16296	830.43634	775.09332	-987.52301	93.64129	797.35938	-876.68695	1013.02747	913.53662				-997.53705	1376.59851	557.48419	-1164.42773	1292.37195	863.42596	-936.66455	1274.47583	808.76013				-1300.88464	1283.47290	699.45746	-1171.81641	1456.95850	640.19037	
317	3.160	-937.72827	458.48553	771.54535	-1127.66443	1538.66882	779.61407							-969.39355	890.82227	648.75745							-1160.93225	891.99652	589.66510				-752.45673	830.28394	764.61646	-987.80994	93.71593	798.01923	-872.93573	1014.34186	905.50299				-994.98187	1376.78760	549.83429	-1161.75134	1293.52893	856.76581	-933.73749	1274.87463	802.28809				-1298.11011	1283.94800	693.05548	-1169.10413	1457.19397	632.89655	
318	3.170	-936.27850	458.40280	769.80927	-1124.28430	1539.00000	771.88123							-967.65295	890.95435	643.12476							-1158.25781	892.42346	584.48615				-750.74750	831.04578	755.52026	-987.61426	93.71468	797.72803	-868.68384	1014.97046	897.72723				-992.45667	1376.95691	542.80096	-1158.14160	1293.83118	849.75769	-930.68353	1276.25964	793.67596				-1295.19714	1284.54309	686.31470	-1166.34436	1457.37524	625.62598	
319	3.180	-935.11798	458.32697	767.45416	-1121.40356	1539.60046	764.32239							-965.41083	891.68951	636.91968							-1155.28357	893.17236	578.26953				-748.12860	831.16095	747.91516	-987.68512	93.77644	798.00293	-864.28369	1016.57355	890.81256				-990.03064	1376.95654	535.01166	-1154.84692	1294.52502	842.75281	-928.15662	1275.76587	786.15363				-1292.09888	1284.77783	679.73071	-1163.88574	1457.61096	618.46283	
320	3.190	-934.18365	458.21469	764.96802	-1118.52698	1539.74585	756.68811							-963.36194	891.41309	631.52557							-1151.67651	893.71338	570.35681				-745.88483	831.01923	737.50629	-987.33710	93.70385	797.33038	-862.17157	1015.59290	881.92883				-987.72113	1377.15320	527.84918	-1152.09106	1295.09692	835.85535	-924.79034	1276.78748	780.66876				-1289.11597	1285.25635	672.85382	-1161.53735	1457.71423	611.10297	
321	3.200	-933.22046	457.23111	761.67419	-1116.32202	1540.45935	749.30627							-961.79541	891.51080	627.53485							-1148.45752	894.93585	563.31354				-744.39954	831.32257	728.68750	-987.11487	94.00203	797.07404	-860.00507	1016.68256	874.09338				-985.52460	1377.12256	520.39233	-1149.34973	1295.97620	828.91852	-921.84283	1277.03845	771.44550				-1286.34375	1285.47766	665.98853	-1159.02283	1457.70740	603.73572	
322	3.210	-932.08154	457.29044	759.00867	-1114.15161	1540.76624	741.88873							-959.98926	891.61884	623.23352							-1144.51453	895.09760	555.73816				-742.70782	831.71179	720.94775	-986.86865	94.29115	796.17627	-854.93958	1016.06915	865.93433				-983.05554	1377.38611	512.24084	-1145.65674	1295.74500	821.50696	-918.33679	1278.17590	768.18335				-1283.38770	1285.78235	658.96710	-1156.85669	1457.69702	596.53656	
323	3.220	-931.56104	457.08286	755.72040	-1111.23987	1540.55615	734.17267							-957.21082	892.44708	617.27551							-1141.37952	895.51898	550.13751				-740.99652	831.14868	712.08624	-986.57092	94.46653	795.65356	-852.27539	1017.14703	859.06561				-980.80774	1377.67639	504.71661	-1142.50439	1296.11658	814.22906	-915.73572	1277.74561	756.57306				-1280.29773	1285.64368	651.84473	-1154.31519	1457.35938	589.02136	
324	3.230	-931.00024	456.10431	752.48297	-1108.72156	1540.46277	726.59729							-953.95056	892.02454	611.71130							-1137.44604	895.76971	542.42145				-738.93640	830.67456	703.91058	-986.60236	94.64480	795.50867	-848.67523	1016.58356	850.69196				-978.42279	1377.67102	495.86688	-1139.94202	1296.47205	807.10797	-912.40808	1278.55920	752.63995				-1277.43445	1285.53101	644.62604	-1151.91370	1457.07861	581.56592	
325	3.240	-930.29907	455.46771	749.35822	-1105.77527	1539.87878	718.84949							-950.79565	891.33221	606.79108							-1134.04053	895.54547	537.32031				-737.24280	830.22052	695.55359	-986.72852	94.80914	795.31274	-846.41840	1015.98914	842.70966				-976.24042	1377.72205	488.93317	-1137.28772	1296.68652	799.78381	-909.91681	1277.79138	741.16284				-1274.72729	1285.48474	637.32251	-1149.65063	1456.64355	574.09521	
326	3.250	-930.39136	455.17538	745.36328	-1103.09070	1539.17322	711.11377							-948.00934	891.47296	601.54877							-1130.33228	895.87415	529.94891				-734.97595	830.00848	687.52521	-986.83826	94.89120	794.74780	-843.12146	1016.91589	834.95831				-974.09192	1377.33533	480.86429	-1134.31287	1296.70117	792.27515	-906.96680	1277.55078	734.45087				-1271.83179	1284.94495	629.94775	-1147.37903	1456.12122	566.58105	
327	3.260	-929.80731	454.32486	741.35199	-1101.04456	1538.85669	703.56940							-944.74030	890.44043	595.47552							-1126.54236	895.12354	522.59570				-733.68109	829.11420	679.24561	-987.00220	94.58475	794.23785	-840.06036	1015.40326	827.60638				-971.68427	1377.38086	472.51898	-1130.58179	1295.87659	784.42487	-903.66638	1277.60632	730.48688				-1268.78870	1284.36707	622.39252	-1145.07080	1455.51575	558.91211	
328	3.270	-929.83588	454.59094	737.55475	-1098.89575	1538.44971	695.91803							-940.47778	889.98834	587.64948							-1123.84766	894.29901	514.95477				-732.20819	827.56683	670.68256	-987.83026	94.78586	793.58502	-837.06000	1014.85034	819.63904				-969.51666	1376.96631	463.98285	-1128.03894	1295.99817	776.86115	-901.02747	1276.79858	723.46503				-1266.19043	1283.89771	614.79535	-1142.94751	1454.90637	551.25330	
329	3.280	-929.53705	453.39413	733.62750	-1096.75708	1537.80176	688.23151							-938.46179	888.78381	581.37073				-1027.61243	1174.49353	542.86310	-1121.11353	892.75958	509.60706				-730.43604	826.62439	663.03198	-989.09106	94.40702	792.72601	-834.48914	1015.17474	812.40369				-967.16010	1376.84766	455.98486	-1125.82129	1295.91125	769.31763	-898.19299	1276.21667	714.70587				-1263.64087	1283.18188	607.10535	-1140.65515	1454.05164	543.42749	
330	3.290	-929.54553	452.89731	729.96539	-1093.88879	1536.60095	680.18030							-935.77893	887.31848	575.63220							-1118.54785	891.41193	502.79489				-729.17542	825.23492	655.90851	-988.80286	94.54348	792.92218	-831.17981	1013.81610	804.24689				-964.93713	1376.14478	448.15445	-1123.52808	1295.61072	761.60425	-895.50714	1275.55359	705.98499				-1261.00806	1282.34106	599.26233	-1138.22266	1453.12573	535.59082	
331	3.300	-929.46600	451.22675	727.17224	-1091.14539	1535.40576	672.10614							-933.41455	885.66876	569.13708				-1022.54761	1172.37573	527.29962	-1115.59583	889.89111	494.31259				-727.19836	823.58826	648.04590	-989.29449	94.84357	792.02985	-828.95496	1012.46039	796.82751				-962.71906	1375.40100	439.10315	-1121.12085	1295.40942	753.68207	-893.07007	1274.34082	698.57697				-1258.21277	1281.60522	591.09558	-1135.88818	1452.15027	527.72382	
332	3.310	-929.14807	450.93478	722.83319	-1088.55798	1534.19739	664.02771							-930.81726	884.44055	562.67212							-1113.15320	887.17773	488.54556				-724.97113	822.43933	640.72418	-989.42755	94.79381	791.94324	-825.61047	1011.31696	788.99573				-960.64874	1374.46008	431.39294	-1118.17664	1294.23596	745.41992	-890.52264	1273.04797	691.27905				-1255.53235	1280.63269	582.90247	-1133.65381	1451.02417	519.64966	
